<svg xmlns="http://www.w3.org/2000/svg" xmlns:xlink="http://www.w3.org/1999/xlink" width="36" height="36" viewBox="0 0 36 36">
  <defs>
    <style>
      .cls-1 {
        fill: #fff;
      }

      .cls-2 {
        clip-path: url(#clip-path);
      }
    </style>
    <clipPath id="clip-path">
      <rect id="Ret칙ngulo_329" data-name="Ret칙ngulo 329" class="cls-1" width="36" height="36"/>
    </clipPath>
  </defs>
  <g id="Grupo_de_m치scara_7" data-name="Grupo de m치scara 7" class="cls-2">
    <g id="logo-octocat" transform="translate(-0.722 2.4)">
      <path id="Caminho_1902" data-name="Caminho 1902" class="cls-1" d="M8.367,12.088A2.242,2.242,0,0,0,6.5,13.129a4.215,4.215,0,0,0-.755,2.55A4.283,4.283,0,0,0,6.5,18.238a2.241,2.241,0,0,0,1.865,1.042,2.173,2.173,0,0,0,1.776-1.04A4.244,4.244,0,0,0,10.9,15.68a4.233,4.233,0,0,0-.755-2.55A2.171,2.171,0,0,0,8.367,12.088Z" transform="translate(3.398 6.071)"/>
      <path id="Caminho_1903" data-name="Caminho 1903" class="cls-1" d="M15.344,12.088a2.253,2.253,0,0,0-1.864,1.04,4.215,4.215,0,0,0-.755,2.55,4.283,4.283,0,0,0,.755,2.559,2.252,2.252,0,0,0,1.864,1.042,2.2,2.2,0,0,0,1.784-1.04,4.189,4.189,0,0,0,.755-2.559,4.233,4.233,0,0,0-.755-2.55A2.176,2.176,0,0,0,15.344,12.088Z" transform="translate(8.98 6.071)"/>
      <path id="Caminho_1904" data-name="Caminho 1904" class="cls-1" d="M33.919,10.775h0a13.154,13.154,0,0,0,.024-3.185A19.169,19.169,0,0,0,32.649,2s-.354.065-1.029.235a19.565,19.565,0,0,0-3.286,1.2A33.3,33.3,0,0,0,23.649,6.16a19.364,19.364,0,0,0-4.982-.479,20.5,20.5,0,0,0-4.982.479Q8.309,2.394,4.676,2A19,19,0,0,0,3.391,7.606,12.411,12.411,0,0,0,3.423,10.8,11.8,11.8,0,0,0,.667,18.559a20.412,20.412,0,0,0,.491,5.325,13.281,13.281,0,0,0,1.695,3.836,11.062,11.062,0,0,0,2.539,2.588,12.688,12.688,0,0,0,2.765,1.642,13.037,13.037,0,0,0,2.893.8,20.939,20.939,0,0,0,2.451.326s2.25.121,5.175.121,5.167-.121,5.167-.121a21.394,21.394,0,0,0,2.451-.328,13.418,13.418,0,0,0,2.884-.8A13.337,13.337,0,0,0,31.952,30.3a10.875,10.875,0,0,0,2.531-2.591,13.253,13.253,0,0,0,1.695-3.835,19.733,19.733,0,0,0,.488-5.327A12.135,12.135,0,0,0,33.919,10.775Zm-5.255,18.98c-2.242,1.064-5.537,1.495-9.908,1.495h-.169c-4.372,0-7.667-.422-9.868-1.495S5.4,26.5,5.4,23.2a6.171,6.171,0,0,1,2.049-4.8,5.07,5.07,0,0,1,2.218-1.113,9.1,9.1,0,0,1,2.491-.2c.756.032,1.817.178,3.158.284s2.354.244,3.359.244c.94,0,2.186-.163,4.187-.325a21.138,21.138,0,0,1,4.459-.082A4.7,4.7,0,0,1,29.9,18.4a6.214,6.214,0,0,1,2.138,4.8C32.03,26.5,30.9,28.691,28.663,29.755Z" transform="translate(-0.667 -2)"/>
    </g>
  </g>
</svg>
